# xmcd
#
# Track frame offsets:
#	150
#	12115
#	25075
#	38342
#	52192
#	64037
#	76765
#	89090
#	101957
#	114035
#	126657
#	140005
#	152640
#	164577
#	175752
#	189915
#	202630
#	215630
#	226927
#	239982
#	251117
#	262955
#	276090
#	288250
#	301000
#	313757
#	326542
#
# Disc length: 4503 seconds
#
# Revision: 1
# Processed by: cddbd v1.4PL0 Copyright (c) Steve Scherf et al.
# Submitted via: audiograbber 1.80
#
DISCID=7a11951b
DTITLE=jimmie davis - you are my sunshine disc 2
DYEAR=1900
DGENRE=
TTITLE0=down at the end of memory lane 1939 
TTITLE1=in my heart you'll always be mine 1939
TTITLE2=the last letter 1939
TTITLE3=born to be blue 1939
TTITLE4=never break a promise 1939
TTITLE5=what else can i do 1940
TTITLE6=why should i care 1940
TTITLE7=it's hard but it's true 1998
TTITLE8=the last trip of the old ship 1939
TTITLE9=why do you treat me like the dirt under your feet 1939
TTITLE10=walls of white 1939
TTITLE11=i'm still a fool over you 1940
TTITLE12=my blue heaven 1940
TTITLE13=two more years (and i'll be free) 1939
TTITLE14=leanin on the old top rail 1939
TTITLE15=you are my sunshine 1940
TTITLE16=your promise was broken 1940
TTITLE17=i'd love to call you sweetheart 1940
TTITLE18=old timer 1940
TTITLE19=baby your mother (like she babied you) 1940
TTITLE20=roll along, kentucky moon 1940
TTITLE21=there's a chill on the hill tonight 1940
TTITLE22=writw a letter to your mother 1940
TTITLE23=my mother's bible 1940
TTITLE24=why should i be to blame 1940
TTITLE25=i feel the same as you 1940
TTITLE26=you're my darling 1940
EXTD=
EXTT0=
EXTT1=
EXTT2=
EXTT3=
EXTT4=
EXTT5=
EXTT6=
EXTT7=
EXTT8=
EXTT9=
EXTT10=
EXTT11=
EXTT12=
EXTT13=
EXTT14=
EXTT15=
EXTT16=
EXTT17=
EXTT18=
EXTT19=
EXTT20=
EXTT21=
EXTT22=
EXTT23=
EXTT24=
EXTT25=
EXTT26=
PLAYORDER=
